<svg width="102" height="100" viewBox="0 0 102 100" fill="none" xmlns="http://www.w3.org/2000/svg">
<path d="M100.572 96.5632H1.42788C0.973135 96.5632 0.604492 96.9319 0.604492 97.3866C0.604492 97.8414 0.973135 98.21 1.42788 98.21H100.572C101.026 98.21 101.395 97.8414 101.395 97.3866C101.395 96.9319 101.026 96.5632 100.572 96.5632Z" fill="url(#paint0_linear)"/>
<path d="M73.0206 10.1747C67.4846 6.88783 59.2439 2.05895 57.9363 1.34509C55.5478 0.0374704 52.7645 0 50.3836 0H5.99561V98.2099H75.4427V13.9707C75.4427 13.0839 75.2169 12.0242 74.1159 10.9923C73.7819 10.6803 73.4146 10.4061 73.0206 10.1747Z" fill="url(#paint1_linear)"/>
<path d="M73.0203 10.1745C67.3997 6.85984 59.3628 2.17028 57.936 1.34497C60.6666 2.9293 65.5079 13.6093 65.5079 13.6093C67.3613 13.0799 70.5866 8.15209 74.1108 10.9883C73.7784 10.6777 73.4127 10.4047 73.0203 10.1745Z" fill="url(#paint2_linear)"/>
<path d="M66.4253 13.1223C67.2247 14.2589 67.7348 15.0275 67.7348 15.0275C69.1087 14.3857 70.892 10.924 73.4995 10.5685C70.7373 9.00532 68.1979 11.879 66.4253 13.1223Z" fill="#9AAA97"/>
<path d="M63.9251 40.2316H17.5194C17.392 40.2316 17.2698 40.181 17.1797 40.0909C17.0897 40.0008 17.039 39.8786 17.039 39.7512C17.039 39.6238 17.0897 39.5016 17.1797 39.4115C17.2698 39.3214 17.392 39.2708 17.5194 39.2708H63.9251C64.0525 39.2708 64.1747 39.3214 64.2648 39.4115C64.3549 39.5016 64.4055 39.6238 64.4055 39.7512C64.4055 39.8786 64.3549 40.0008 64.2648 40.0909C64.1747 40.181 64.0525 40.2316 63.9251 40.2316ZM41.635 23.7196C41.635 23.5922 41.5844 23.4701 41.4943 23.38C41.4042 23.2899 41.282 23.2393 41.1546 23.2393H17.5194C17.392 23.2393 17.2698 23.2899 17.1797 23.38C17.0897 23.4701 17.039 23.5922 17.039 23.7196C17.039 23.8471 17.0897 23.9692 17.1797 24.0593C17.2698 24.1494 17.392 24.2 17.5194 24.2H41.1546C41.2819 24.1998 41.4038 24.1491 41.4937 24.059C41.5836 23.9689 41.6341 23.8469 41.6341 23.7196H41.635ZM41.635 28.9357C41.635 28.8083 41.5844 28.6861 41.4943 28.596C41.4042 28.5059 41.282 28.4553 41.1546 28.4553H17.5194C17.392 28.4553 17.2698 28.5059 17.1797 28.596C17.0897 28.6861 17.039 28.8083 17.039 28.9357C17.039 29.0631 17.0897 29.1853 17.1797 29.2754C17.2698 29.3655 17.392 29.4161 17.5194 29.4161H41.1546C41.2819 29.4159 41.4038 29.3651 41.4937 29.2751C41.5836 29.185 41.6341 29.063 41.6341 28.9357H41.635ZM64.4055 45.1594C64.4055 45.032 64.3549 44.9099 64.2648 44.8198C64.1747 44.7297 64.0525 44.6791 63.9251 44.6791H17.5194C17.392 44.6791 17.2698 44.7297 17.1797 44.8198C17.0897 44.9099 17.039 45.032 17.039 45.1594C17.039 45.2869 17.0897 45.409 17.1797 45.4991C17.2698 45.5892 17.392 45.6398 17.5194 45.6398H63.9251C64.0525 45.6398 64.1747 45.5892 64.2648 45.4991C64.3549 45.409 64.4055 45.2869 64.4055 45.1594ZM64.4055 50.5667C64.4055 50.4393 64.3549 50.3171 64.2648 50.227C64.1747 50.1369 64.0525 50.0863 63.9251 50.0863H17.5194C17.392 50.0863 17.2698 50.1369 17.1797 50.227C17.0897 50.3171 17.039 50.4393 17.039 50.5667C17.039 50.6941 17.0897 50.8163 17.1797 50.9064C17.2698 50.9965 17.392 51.0471 17.5194 51.0471H63.9251C64.0525 51.0471 64.1747 50.9965 64.2648 50.9064C64.3549 50.8163 64.4055 50.6941 64.4055 50.5667ZM64.4055 55.9749C64.4055 55.8475 64.3549 55.7254 64.2648 55.6353C64.1747 55.5452 64.0525 55.4946 63.9251 55.4946H17.5194C17.392 55.4946 17.2698 55.5452 17.1797 55.6353C17.0897 55.7254 17.039 55.8475 17.039 55.9749C17.039 56.1024 17.0897 56.2245 17.1797 56.3146C17.2698 56.4047 17.392 56.4553 17.5194 56.4553H63.9251C64.0525 56.4553 64.1747 56.4047 64.2648 56.3146C64.3549 56.2245 64.4055 56.1024 64.4055 55.9749ZM64.4055 61.3822C64.4055 61.2548 64.3549 61.1326 64.2648 61.0425C64.1747 60.9524 64.0525 60.9018 63.9251 60.9018H17.5194C17.392 60.9018 17.2698 60.9524 17.1797 61.0425C17.0897 61.1326 17.039 61.2548 17.039 61.3822C17.039 61.5096 17.0897 61.6318 17.1797 61.7219C17.2698 61.812 17.392 61.8626 17.5194 61.8626H63.9251C64.0525 61.8626 64.1747 61.812 64.2648 61.7219C64.3549 61.6318 64.4055 61.5096 64.4055 61.3822ZM47.0039 66.7904C47.0039 66.663 46.9532 66.5409 46.8631 66.4508C46.7731 66.3607 46.6509 66.3101 46.5235 66.3101H17.5185C17.3911 66.3101 17.2689 66.3607 17.1788 66.4508C17.0887 66.5409 17.0381 66.663 17.0381 66.7904C17.0381 66.9179 17.0887 67.04 17.1788 67.1301C17.2689 67.2202 17.3911 67.2708 17.5185 67.2708H46.5235C46.6509 67.2708 46.7731 67.2202 46.8631 67.1301C46.9532 67.04 47.0039 66.9179 47.0039 66.7904Z" fill="#14A800"/>
<path d="M91.7916 98.2107H61.3771C59.0521 98.2107 57.168 96.097 57.168 93.4856V20.5547C57.168 17.9452 59.0521 15.8296 61.3771 15.8296H91.7887C94.1138 15.8296 95.9979 17.9433 95.9979 20.5547V93.4856C96.0008 96.0951 94.1167 98.2107 91.7916 98.2107Z" fill="url(#paint3_linear)"/>
<path d="M87.8643 98.2107H58.7834C56.4583 98.2107 54.5742 96.097 54.5742 93.4856V20.5547C54.5742 17.9452 56.4583 15.8296 58.7834 15.8296H87.8672C90.1913 15.8296 92.0754 17.9433 92.0754 20.5547V93.4856C92.0725 96.0951 90.1884 98.2107 87.8643 98.2107Z" fill="#13544E"/>
<path d="M73.322 95.8327C75.0041 95.8327 76.3677 94.2712 76.3677 92.3451C76.3677 90.4189 75.0041 88.8574 73.322 88.8574C71.64 88.8574 70.2764 90.4189 70.2764 92.3451C70.2764 94.2712 71.64 95.8327 73.322 95.8327Z" fill="#092622"/>
<path d="M92.0725 23.3477H54.5713V86.9686H92.0725V23.3477Z" fill="#F2F7F2"/>
<path d="M72.1571 33.6366H59.5517C59.4243 33.6366 59.3021 33.5859 59.212 33.4959C59.1219 33.4058 59.0713 33.2836 59.0713 33.1562C59.0713 33.0288 59.1219 32.9066 59.212 32.8165C59.3021 32.7264 59.4243 32.6758 59.5517 32.6758H72.1571C72.2845 32.6758 72.4067 32.7264 72.4968 32.8165C72.5869 32.9066 72.6375 33.0288 72.6375 33.1562C72.6375 33.2836 72.5869 33.4058 72.4968 33.4959C72.4067 33.5859 72.2845 33.6366 72.1571 33.6366ZM87.569 33.1562C87.569 33.0288 87.5184 32.9066 87.4283 32.8165C87.3382 32.7264 87.216 32.6758 87.0886 32.6758H74.4861C74.3586 32.6758 74.2365 32.7264 74.1464 32.8165C74.0563 32.9066 74.0057 33.0288 74.0057 33.1562C74.0057 33.2836 74.0563 33.4058 74.1464 33.4959C74.2365 33.5859 74.3586 33.6366 74.4861 33.6366H87.0896C87.2166 33.6363 87.3384 33.5857 87.4283 33.4959C87.5181 33.406 87.5687 33.2842 87.569 33.1571V33.1562ZM67.0371 38.5663V38.5586C67.0371 38.4312 66.9865 38.309 66.8964 38.2189C66.8063 38.1289 66.6841 38.0782 66.5567 38.0782H59.5517C59.4243 38.0782 59.3021 38.1289 59.212 38.2189C59.1219 38.309 59.0713 38.4312 59.0713 38.5586V38.5663C59.0713 38.6937 59.1219 38.8159 59.212 38.906C59.3021 38.9961 59.4243 39.0467 59.5517 39.0467H66.5538C66.6172 39.0471 66.68 39.0349 66.7386 39.011C66.7972 38.987 66.8505 38.9517 66.8954 38.907C66.9403 38.8624 66.976 38.8093 67.0003 38.7508C67.0246 38.6924 67.0371 38.6297 67.0371 38.5663ZM87.569 38.5663V38.5586C87.569 38.4312 87.5184 38.309 87.4283 38.2189C87.3382 38.1289 87.216 38.0782 87.0886 38.0782H68.8866C68.7592 38.0782 68.637 38.1289 68.5469 38.2189C68.4568 38.309 68.4062 38.4312 68.4062 38.5586V38.5663C68.4062 38.6937 68.4568 38.8159 68.5469 38.906C68.637 38.9961 68.7592 39.0467 68.8866 39.0467H87.0896C87.2168 39.0465 87.3387 38.9957 87.4286 38.9057C87.5185 38.8156 87.569 38.6936 87.569 38.5663ZM77.2704 43.4874H59.5517C59.4243 43.4874 59.3021 43.538 59.212 43.6281C59.1219 43.7182 59.0713 43.8404 59.0713 43.9678V43.9755C59.0713 44.1029 59.1219 44.2251 59.212 44.3152C59.3021 44.4053 59.4243 44.4559 59.5517 44.4559H87.0867C87.2141 44.4559 87.3363 44.4053 87.4264 44.3152C87.5165 44.2251 87.5671 44.1029 87.5671 43.9755V43.9678C87.5671 43.8404 87.5165 43.7182 87.4264 43.6281C87.3363 43.538 87.2141 43.4874 87.0867 43.4874H77.2704ZM78.2369 49.3828V49.3751C78.2369 49.2477 78.1863 49.1255 78.0962 49.0354C78.0061 48.9453 77.884 48.8947 77.7565 48.8947H59.5517C59.4243 48.8947 59.3021 48.9453 59.212 49.0354C59.1219 49.1255 59.0713 49.2477 59.0713 49.3751V49.3828C59.0713 49.5102 59.1219 49.6324 59.212 49.7225C59.3021 49.8126 59.4243 49.8632 59.5517 49.8632H77.7537C77.8168 49.8636 77.8795 49.8515 77.9379 49.8276C77.9964 49.8038 78.0497 49.7686 78.0945 49.7242C78.1394 49.6797 78.1751 49.6269 78.1995 49.5686C78.224 49.5104 78.2367 49.4479 78.2369 49.3847V49.3828ZM87.569 49.3828V49.3751C87.569 49.2477 87.5184 49.1255 87.4283 49.0354C87.3382 48.9453 87.216 48.8947 87.0886 48.8947H80.0855C79.9581 48.8947 79.8359 48.9453 79.7458 49.0354C79.6557 49.1255 79.6051 49.2477 79.6051 49.3751V49.3828C79.6051 49.5102 79.6557 49.6324 79.7458 49.7225C79.8359 49.8126 79.9581 49.8632 80.0855 49.8632H87.0886C87.2157 49.8632 87.3376 49.8128 87.4276 49.7231C87.5176 49.6335 87.5685 49.5118 87.569 49.3847V49.3828Z" fill="#BDA1E7"/>
<path d="M78.1745 20.449H68.4706C68.0585 20.449 67.7241 20.0733 67.7241 19.6102V19.5929C67.7241 19.1308 68.0585 18.7551 68.4706 18.7551H78.1745C78.5877 18.7551 78.922 19.1308 78.922 19.5929V19.6102C78.922 20.0733 78.5877 20.449 78.1745 20.449Z" fill="#092622"/>
<path d="M94.236 23.783C94.0963 23.783 93.9624 23.8384 93.8637 23.9372C93.7649 24.0359 93.7095 24.1698 93.7095 24.3095V28.6762H94.7663V24.3095L94.6482 23.783H94.236Z" fill="#65735B"/>
<path d="M94.7644 28.1975H93.7075V32.5643C93.7076 32.6335 93.7214 32.702 93.7481 32.7659C93.7747 32.8298 93.8137 32.8878 93.8627 32.9366C93.9118 32.9854 93.9701 33.0241 94.0341 33.0504C94.0981 33.0767 94.1667 33.0901 94.236 33.0898H94.6443V32.8976C94.7209 32.8038 94.7627 32.6864 94.7625 32.5652L94.7644 28.1975Z" fill="#65735B"/>
<path d="M95.1731 28.6762H94.1162V24.3095C94.1162 24.1698 94.1717 24.0359 94.2704 23.9372C94.3692 23.8384 94.5031 23.783 94.6427 23.783C94.7824 23.783 94.9163 23.8384 95.015 23.9372C95.1138 24.0359 95.1692 24.1698 95.1692 24.3095L95.1731 28.6762Z" fill="#C3D2C3"/>
<path d="M95.1731 28.1975H94.1162V32.5643C94.1162 32.7039 94.1717 32.8378 94.2704 32.9366C94.3692 33.0353 94.5031 33.0908 94.6427 33.0908C94.7824 33.0908 94.9163 33.0353 95.015 32.9366C95.1138 32.8378 95.1692 32.7039 95.1692 32.5643L95.1731 28.1975Z" fill="#C3D2C3"/>
<path d="M95.1757 28.0977H93.7114V28.2975H95.1757V28.0977Z" fill="#65735B"/>
<path d="M63.0329 52.8821C60.03 52.8781 57.0905 53.7459 54.5713 55.3801V81.5556C56.6066 82.8705 58.9204 83.6927 61.329 83.9569C63.7377 84.2211 66.1747 83.9199 68.4466 83.0774C70.7185 82.2349 72.7626 80.8743 74.4166 79.1035C76.0706 77.3328 77.2889 75.2007 77.9747 72.8767C78.6605 70.5527 78.7949 68.1008 78.3673 65.7158C77.9397 63.3307 76.9618 61.0783 75.5114 59.1373C74.0609 57.1963 72.1778 55.6203 70.0116 54.5345C67.8455 53.4486 65.456 52.8828 63.0329 52.8821Z" fill="#C3D2C3"/>
<path d="M39.111 98.2112H26.2384C25.7837 98.2112 25.415 98.5798 25.415 99.0346C25.415 99.4893 25.7837 99.858 26.2384 99.858H39.111C39.5657 99.858 39.9343 99.4893 39.9343 99.0346C39.9343 98.5798 39.5657 98.2112 39.111 98.2112Z" fill="url(#paint4_linear)"/>
<path d="M50.533 78.0347C49.9353 76.9455 49.0451 76.045 47.9629 75.4348C47.8547 75.3742 47.7306 75.3481 47.6071 75.36C47.4837 75.3718 47.3668 75.421 47.2721 75.5011L32.1936 88.2497C30.297 89.8532 28.5773 91.655 27.064 93.6243C26.4792 94.3867 26.1896 95.3349 26.2488 96.294C26.3079 97.2531 26.7118 98.1585 27.3859 98.8433C28.0549 99.5233 28.9514 99.9325 29.9035 99.9924C30.8556 100.052 31.7963 99.7588 32.5453 99.168C34.4971 97.633 36.2792 95.8937 37.8613 93.9798L50.4677 78.7312C50.5468 78.6349 50.5954 78.5171 50.607 78.393C50.6187 78.2688 50.5929 78.144 50.533 78.0347Z" fill="url(#paint5_linear)"/>
<path d="M50.4674 78.7322C50.5468 78.6358 50.5954 78.5178 50.6071 78.3935C50.6187 78.2691 50.5928 78.1442 50.5327 78.0347C49.9351 76.9455 49.0449 76.045 47.9627 75.4348C47.8544 75.3742 47.7303 75.3481 47.6069 75.36C47.4834 75.3718 47.3666 75.421 47.2719 75.5011L45.5703 76.9423C46.118 76.4792 50.9968 78.0952 49.6671 79.7036L50.4674 78.7322Z" fill="#6D2B11"/>
<path d="M49.7519 73.1805L52.8946 76.3578C53.2428 76.7117 53.4379 77.1882 53.4379 77.6847C53.4379 78.1811 53.2428 78.6577 52.8946 79.0115L52.7572 79.1508C52.5857 79.3248 52.3814 79.4629 52.1561 79.5572C51.9308 79.6515 51.689 79.7 51.4448 79.7C51.2005 79.7 50.9587 79.6515 50.7334 79.5572C50.5081 79.4629 50.3038 79.3248 50.1323 79.1508L46.9906 75.9726C46.6424 75.6187 46.4473 75.1422 46.4473 74.6457C46.4473 74.1493 46.6424 73.6728 46.9906 73.3189L47.128 73.1805C47.2992 73.0064 47.5034 72.8681 47.7287 72.7737C47.9539 72.6792 48.1957 72.6306 48.4399 72.6306C48.6842 72.6306 48.9259 72.6792 49.1512 72.7737C49.3764 72.8681 49.5806 73.0064 49.7519 73.1805Z" fill="url(#paint6_radial)"/>
<path d="M63.0322 48.6787H60.6495C56.5377 48.711 52.6053 50.367 49.7092 53.286C46.8131 56.2049 45.188 60.1502 45.188 64.2621C45.188 68.374 46.8131 72.3192 49.7092 75.2382C52.6053 78.1571 56.5377 79.8132 60.6495 79.8455H63.0322C67.144 79.8132 71.0764 78.1571 73.9725 75.2382C76.8686 72.3192 78.4937 68.374 78.4937 64.2621C78.4937 60.1502 76.8686 56.2049 73.9725 53.286C71.0764 50.367 67.144 48.711 63.0322 48.6787Z" fill="#14A800"/>
<path d="M60.6499 79.8457C62.7066 79.8618 64.7462 79.4707 66.6511 78.6948C68.5559 77.9189 70.2883 76.7736 71.7484 75.3249C73.2084 73.8763 74.3673 72.1529 75.1581 70.2542C75.949 68.3556 76.3561 66.3191 76.3561 64.2623C76.3561 62.2055 75.949 60.1691 75.1581 58.2704C74.3673 56.3717 73.2084 54.6483 71.7484 53.1997C70.2883 51.751 68.5559 50.6057 66.6511 49.8298C64.7462 49.054 62.7066 48.6628 60.6499 48.6789H63.0326C67.1444 48.7112 71.0768 50.3673 73.9729 53.2862C76.869 56.2052 78.4941 60.1504 78.4941 64.2623C78.4941 68.3742 76.869 72.3195 73.9729 75.2384C71.0768 78.1574 67.1444 79.8134 63.0326 79.8457H60.6499Z" fill="url(#paint7_linear)"/>
<path d="M70.2976 54.6117C72.2051 56.5199 73.5041 58.9509 74.0302 61.5973C74.5562 64.2437 74.2858 66.9866 73.2531 69.4793C72.2203 71.972 70.4717 74.1025 68.2282 75.6014C65.9847 77.1004 63.3471 77.9004 60.6489 77.9004C57.9508 77.9004 55.3132 77.1004 53.0697 75.6014C50.8262 74.1025 49.0775 71.972 48.0448 69.4793C47.0121 66.9866 46.7416 64.2437 47.2677 61.5973C47.7938 58.9509 49.0927 56.5199 51.0003 54.6117C52.2672 53.3444 53.7714 52.3391 55.427 51.6532C57.0825 50.9673 58.8569 50.6143 60.6489 50.6143C62.4409 50.6143 64.2154 50.9673 65.8709 51.6532C67.5264 52.3391 69.0306 53.3444 70.2976 54.6117Z" fill="#F2F7F2"/>
<path opacity="0.35" d="M60.6495 77.903C68.1827 77.903 74.2896 71.796 74.2896 64.2628C74.2896 56.7295 68.1827 50.6226 60.6495 50.6226C53.1162 50.6226 47.0093 56.7295 47.0093 64.2628C47.0093 71.796 53.1162 77.903 60.6495 77.903Z" fill="url(#paint8_linear)"/>
<path opacity="0.3" d="M60.6495 77.903C68.1827 77.903 74.2896 71.796 74.2896 64.2628C74.2896 56.7295 68.1827 50.6226 60.6495 50.6226C53.1162 50.6226 47.0093 56.7295 47.0093 64.2628C47.0093 71.796 53.1162 77.903 60.6495 77.903Z" fill="url(#paint9_radial)"/>
<path opacity="0.3" d="M49.4768 66.7293C49.4782 64.181 50.1933 61.684 51.541 59.5212C52.8888 57.3584 54.8153 55.6164 57.1024 54.4924C59.3895 53.3684 61.9456 52.9074 64.4812 53.1617C67.0168 53.416 69.4305 54.3754 71.4489 55.9311C70.266 54.392 68.7683 53.123 67.0559 52.2089C65.3434 51.2948 63.4556 50.7567 61.5185 50.6304C59.5815 50.5042 57.6398 50.7928 55.8232 51.4769C54.0066 52.161 52.3569 53.2249 50.9842 54.5975C49.6116 55.9701 48.5477 57.6198 47.8636 59.4365C47.1795 61.2531 46.8909 63.1948 47.0172 65.1318C47.1434 67.0689 47.6815 68.9567 48.5956 70.6691C49.5097 72.3816 50.7787 73.8793 52.3178 75.0621C50.4717 72.6771 49.4721 69.7454 49.4768 66.7293Z" fill="#01CDBE"/>
<path d="M48.143 64.2627C48.1426 60.7422 49.5032 57.3579 51.9401 54.8173C54.3771 52.2767 57.7018 50.7764 61.2192 50.6302C61.027 50.6225 60.8406 50.6177 60.6494 50.6177C57.0311 50.6177 53.5609 52.0551 51.0023 54.6136C48.4437 57.1722 47.0063 60.6424 47.0063 64.2607C47.0063 67.8791 48.4437 71.3493 51.0023 73.9079C53.5609 76.4664 57.0311 77.9038 60.6494 77.9038C60.8416 77.9038 61.0337 77.9038 61.2192 77.8913C57.7024 77.7451 54.3783 76.2453 51.9415 73.7056C49.5046 71.1658 48.1436 67.7824 48.143 64.2627Z" fill="url(#paint10_linear)"/>
<defs>
<linearGradient id="paint0_linear" x1="0.604492" y1="97.3866" x2="101.396" y2="97.3866" gradientUnits="userSpaceOnUse">
<stop stop-color="#C3D2C3" stop-opacity="0.05"/>
<stop offset="0.01" stop-color="#C3D2C3" stop-opacity="0.3"/>
<stop offset="0.02" stop-color="#C3D2C3" stop-opacity="0.51"/>
<stop offset="0.03" stop-color="#C3D2C3" stop-opacity="0.69"/>
<stop offset="0.04" stop-color="#C3D2C3" stop-opacity="0.83"/>
<stop offset="0.05" stop-color="#C3D2C3" stop-opacity="0.92"/>
<stop offset="0.06" stop-color="#C3D2C3" stop-opacity="0.98"/>
<stop offset="0.07" stop-color="#C3D2C3"/>
<stop offset="0.19" stop-color="#C3D2C3"/>
<stop offset="0.89" stop-color="#C3D2C3"/>
<stop offset="0.91" stop-color="#C3D2C3" stop-opacity="0.78"/>
<stop offset="0.97" stop-color="#C3D2C3" stop-opacity="0.23"/>
<stop offset="1" stop-color="#C3D2C3" stop-opacity="0.01"/>
</linearGradient>
<linearGradient id="paint1_linear" x1="-0.176007" y1="92.3685" x2="75.5102" y2="12.3046" gradientUnits="userSpaceOnUse">
<stop offset="0.58" stop-color="#E4EBE4"/>
<stop offset="0.73" stop-color="#E1E9E1"/>
<stop offset="0.82" stop-color="#D9E2D9"/>
<stop offset="0.91" stop-color="#CAD7CA"/>
<stop offset="0.93" stop-color="#C3D2C3"/>
</linearGradient>
<linearGradient id="paint2_linear" x1="63.7435" y1="11.5568" x2="67.8933" y2="1.76034" gradientUnits="userSpaceOnUse">
<stop offset="0.22" stop-color="#D5E0D5"/>
<stop offset="0.37" stop-color="#C8D4C7"/>
<stop offset="0.78" stop-color="#A7B6A4"/>
<stop offset="1" stop-color="#9AAA97"/>
</linearGradient>
<linearGradient id="paint3_linear" x1="76.5863" y1="98.2107" x2="76.5863" y2="15.8296" gradientUnits="userSpaceOnUse">
<stop stop-color="#0D3A35"/>
<stop offset="0.55" stop-color="#13544E"/>
<stop offset="1" stop-color="#0D3B36"/>
</linearGradient>
<linearGradient id="paint4_linear" x1="25.415" y1="99.0346" x2="39.9353" y2="99.0346" gradientUnits="userSpaceOnUse">
<stop stop-color="#C3D2C3" stop-opacity="0"/>
<stop offset="0.01" stop-color="#C3D2C3" stop-opacity="0.05"/>
<stop offset="0.08" stop-color="#C3D2C3" stop-opacity="0.3"/>
<stop offset="0.15" stop-color="#C3D2C3" stop-opacity="0.51"/>
<stop offset="0.23" stop-color="#C3D2C3" stop-opacity="0.69"/>
<stop offset="0.3" stop-color="#C3D2C3" stop-opacity="0.83"/>
<stop offset="0.37" stop-color="#C3D2C3" stop-opacity="0.92"/>
<stop offset="0.44" stop-color="#C3D2C3" stop-opacity="0.98"/>
<stop offset="0.51" stop-color="#C3D2C3"/>
<stop offset="1" stop-color="#C3D2C3" stop-opacity="0.01"/>
</linearGradient>
<linearGradient id="paint5_linear" x1="35.4901" y1="84.7813" x2="41.3854" y2="90.6766" gradientUnits="userSpaceOnUse">
<stop stop-color="#BC5118"/>
<stop offset="0.24" stop-color="#B84F18"/>
<stop offset="0.46" stop-color="#AD4A17"/>
<stop offset="0.67" stop-color="#9B4115"/>
<stop offset="0.88" stop-color="#813413"/>
<stop offset="1" stop-color="#6D2B11"/>
</linearGradient>
<radialGradient id="paint6_radial" cx="0" cy="0" r="1" gradientUnits="userSpaceOnUse" gradientTransform="translate(51.9574 73.7566) rotate(-134.715) scale(10.99 4.53778)">
<stop stop-color="#AD8D05"/>
<stop offset="0.26" stop-color="#AF8E08"/>
<stop offset="0.43" stop-color="#B49311"/>
<stop offset="0.58" stop-color="#BE9B20"/>
<stop offset="0.7" stop-color="#CAA533"/>
<stop offset="0.77" stop-color="#D1AB3F"/>
<stop offset="0.89" stop-color="#E5BB5D"/>
<stop offset="1" stop-color="#FCCD81"/>
</radialGradient>
<linearGradient id="paint7_linear" x1="69.6332" y1="79.8457" x2="69.6332" y2="48.6789" gradientUnits="userSpaceOnUse">
<stop offset="0.42" stop-color="#126B00"/>
<stop offset="0.44" stop-color="#126F00"/>
<stop offset="0.64" stop-color="#138E00"/>
<stop offset="0.81" stop-color="#14A100"/>
<stop offset="0.93" stop-color="#14A800"/>
</linearGradient>
<linearGradient id="paint8_linear" x1="51.0052" y1="54.6175" x2="70.2947" y2="73.907" gradientUnits="userSpaceOnUse">
<stop stop-color="#01CDBE" stop-opacity="0.5"/>
<stop offset="0.05" stop-color="#01CDBE" stop-opacity="0.51"/>
<stop offset="0.08" stop-color="#01CDBE" stop-opacity="0.56"/>
<stop offset="0.11" stop-color="#01CDBE" stop-opacity="0.63"/>
<stop offset="0.13" stop-color="#01CDBE" stop-opacity="0.73"/>
<stop offset="0.15" stop-color="#01CDBE" stop-opacity="0.86"/>
<stop offset="0.17" stop-color="#01CDBE"/>
<stop offset="0.18" stop-color="#01CDBE" stop-opacity="0.97"/>
<stop offset="0.28" stop-color="#01CDBE" stop-opacity="0.77"/>
<stop offset="0.38" stop-color="#01CDBE" stop-opacity="0.62"/>
<stop offset="0.46" stop-color="#01CDBE" stop-opacity="0.53"/>
<stop offset="0.51" stop-color="#01CDBE" stop-opacity="0.5"/>
<stop offset="0.63" stop-color="#01CDBE" stop-opacity="0.51"/>
<stop offset="0.71" stop-color="#01CDBE" stop-opacity="0.56"/>
<stop offset="0.78" stop-color="#01CDBE" stop-opacity="0.63"/>
<stop offset="0.84" stop-color="#01CDBE" stop-opacity="0.73"/>
<stop offset="0.89" stop-color="#01CDBE" stop-opacity="0.86"/>
<stop offset="0.93" stop-color="#01CDBE"/>
</linearGradient>
<radialGradient id="paint9_radial" cx="0" cy="0" r="1" gradientUnits="userSpaceOnUse" gradientTransform="translate(54.9636 60.901) scale(23.5967)">
<stop stop-color="#01CDBE" stop-opacity="0"/>
<stop offset="1" stop-color="#01CDBE"/>
</radialGradient>
<linearGradient id="paint10_linear" x1="54.1123" y1="77.9077" x2="54.1123" y2="50.6177" gradientUnits="userSpaceOnUse">
<stop offset="0.42" stop-color="#14A800"/>
<stop offset="0.44" stop-color="#14A400"/>
<stop offset="0.64" stop-color="#138500"/>
<stop offset="0.81" stop-color="#127200"/>
<stop offset="0.93" stop-color="#126B00"/>
</linearGradient>
</defs>
</svg>
