<svg width="100" height="100" viewBox="0 0 100 100" fill="none" xmlns="http://www.w3.org/2000/svg">
<path d="M50 90C72.0914 90 90 72.0914 90 50C90 27.9086 72.0914 10 50 10C27.9086 10 10 27.9086 10 50C10 72.0914 27.9086 90 50 90Z" fill="#E4EAE4"/>
<path d="M82.0936 64.9092H17.9062C17.601 64.9092 17.3535 65.1565 17.3535 65.4615C17.3535 65.7666 17.601 66.0139 17.9062 66.0139H82.0936C82.3988 66.0139 82.6462 65.7666 82.6462 65.4615C82.6462 65.1565 82.3988 64.9092 82.0936 64.9092Z" fill="url(#paint0_linear)"/>
<path d="M71.6004 36.0872L71.5458 35.2738C71.4511 33.8578 70.3064 32.7405 68.9091 32.7405C68.4866 32.7403 68.0705 32.8442 67.6978 33.0431C67.5527 33.1204 67.4152 33.211 67.2871 33.3138C67.2204 33.3651 67.1618 33.4198 67.1024 33.4765C67.0431 33.5331 66.9871 33.5938 66.9331 33.6558C66.5437 34.11 66.3121 34.6782 66.2731 35.2752L66.2178 36.0885L68.9111 36.4218L71.6004 36.0872Z" fill="url(#paint1_linear)"/>
<path d="M71.4448 36.0864H68.8208L68.5068 66.0144H73.3775L71.4448 36.0864Z" fill="url(#paint2_linear)"/>
<path d="M68.5072 66.0144L68.9145 36.0864H66.5759H65.4405L63.4292 66.0144H68.5072Z" fill="url(#paint3_linear)"/>
<path d="M65.921 35.2737L63.8357 66.0144H26.3677L28.453 35.2737" fill="url(#paint4_linear)"/>
<path d="M29.8129 35.2737L29.4129 41.1623C29.3608 41.8759 29.5019 42.5903 29.8215 43.2304C30.1411 43.8705 30.6273 44.4126 31.2289 44.7997L45.1689 53.613C46.0859 54.185 47.1847 54.3902 48.2463 54.1877L48.1589 55.4743H44.2523L44.1189 57.4003C44.1124 57.4677 44.1201 57.5357 44.1414 57.6C44.1626 57.6642 44.1971 57.7234 44.2425 57.7735C44.2879 57.8237 44.3433 57.8639 44.4052 57.8915C44.467 57.919 44.5339 57.9334 44.6016 57.9337H47.6943C47.8366 57.9297 47.9723 57.8728 48.0749 57.7742C48.1776 57.6756 48.2399 57.5423 48.2496 57.4003L48.3829 55.4743L48.4736 54.141C48.9371 54.0312 49.3817 53.8533 49.7929 53.613L65.2843 44.591H65.2889L65.9209 35.2764L29.8129 35.2737Z" fill="#51200F"/>
<path d="M71.9066 40.5592L71.5486 35.2738C71.4539 33.8578 70.3092 32.7405 68.9119 32.7405H68.8452H31.4452C30.0452 32.7405 28.9039 33.8591 28.8092 35.2738L28.4092 41.1625C28.3099 42.6292 29.0092 44.0292 30.2246 44.7985L44.1632 53.6132C45.5319 54.4798 47.3019 54.4798 48.7879 53.6132L64.2792 44.5912C64.691 44.3504 65.0547 44.0356 65.3519 43.6625L63.8359 66.0145H64.1912L64.2579 65.0812L65.7339 43.0825C65.9448 42.693 66.0898 42.2713 66.1632 41.8345C66.1872 41.7105 66.2032 41.5852 66.2112 41.4592L66.6286 35.2991C66.6286 35.2898 66.6286 35.2805 66.6286 35.2705C66.6384 35.1449 66.658 35.0203 66.6872 34.8978C66.7012 34.8378 66.7179 34.7778 66.7372 34.7191C66.7369 34.7178 66.7369 34.7165 66.7372 34.7151C66.7559 34.6565 66.7772 34.5991 66.8039 34.5418C66.8279 34.4831 66.8546 34.4258 66.8832 34.3691C66.9691 34.2016 67.0747 34.0449 67.1979 33.9025C67.2446 33.8485 67.2939 33.7965 67.3446 33.7471C67.3952 33.6978 67.4412 33.6578 67.4919 33.6138L67.5046 33.6031L67.5339 33.5811C67.6363 33.5012 67.7453 33.4303 67.8599 33.3691C67.9543 33.3176 68.0523 33.2731 68.1532 33.2358C68.2066 33.2165 68.2606 33.1998 68.3152 33.1851H68.3199C68.3746 33.1698 68.4306 33.1571 68.4866 33.1465C68.6254 33.1196 68.7665 33.1059 68.9079 33.1058C70.1079 33.1058 71.1079 34.0691 71.1892 35.2985L73.2079 64.9998L73.2746 66.0165H73.6312L71.9066 40.5592Z" fill="#6D2B11"/>
<path d="M31.0889 32.739C29.6889 32.739 28.5469 33.8577 28.4523 35.2723L28.0523 41.161C27.9997 41.8746 28.1405 42.5892 28.4599 43.2296C28.7792 43.8699 29.2653 44.4123 29.8669 44.7997L43.8083 53.613C45.1763 54.4797 46.9463 54.4797 48.4323 53.613L63.9236 44.591C64.479 44.2623 64.9456 43.8026 65.2825 43.2522C65.6195 42.7017 65.8167 42.0772 65.8569 41.433L66.2749 35.2737C66.3696 33.8577 67.5136 32.7403 68.9109 32.7403L31.0889 32.739Z" fill="url(#paint5_linear)"/>
<path d="M48.5143 51.9451H48.2903L48.167 53.7564C48.2143 53.7331 48.261 53.7077 48.3077 53.6824L48.295 53.8624C48.3383 53.8431 48.3817 53.8244 48.4283 53.8037L48.403 53.6311L48.5143 51.9451Z" fill="#51200F"/>
<path d="M48.2011 51.9451H44.0704L43.8311 55.4744H47.9617L48.2011 51.9451Z" fill="url(#paint6_linear)"/>
<path d="M47.4999 57.9329H44.4079C44.3402 57.9328 44.2732 57.9185 44.2113 57.891C44.1494 57.8634 44.0939 57.8233 44.0484 57.7731C44.0029 57.7229 43.9684 57.6637 43.9471 57.5994C43.9258 57.5351 43.9181 57.4671 43.9246 57.3996L44.0579 55.4736H48.1913L48.0579 57.3996C48.0482 57.5421 47.9855 57.6757 47.8823 57.7744C47.7791 57.8731 47.6427 57.9296 47.4999 57.9329Z" fill="#EB9546"/>
<path d="M47.2758 57.9329H44.1838C44.1161 57.9328 44.0491 57.9185 43.9872 57.891C43.9253 57.8634 43.8698 57.8233 43.8243 57.7731C43.7788 57.7229 43.7443 57.6637 43.723 57.5994C43.7016 57.5351 43.694 57.4671 43.7005 57.3996L43.8338 55.4736H47.9672L47.8338 57.3996C47.8241 57.5421 47.7614 57.6757 47.6582 57.7744C47.5549 57.8731 47.4186 57.9296 47.2758 57.9329Z" fill="url(#paint7_linear)"/>
<path d="M48.1859 55.4744H47.9619L48.2012 51.9451H48.4259L48.1859 55.4744Z" fill="#EB9546"/>
<path d="M46.2138 26.4263H45.2005C44.0605 26.4263 43.1338 27.3789 43.1338 28.5543V32.739H45.2005V28.7776H46.2138C46.7751 28.7776 47.2291 28.2516 47.2291 27.6016C47.2291 26.9516 46.7751 26.4263 46.2138 26.4263Z" fill="url(#paint8_linear)"/>
<path d="M46.343 26.0771C45.6157 26.0771 45.0264 26.7598 45.0264 27.6018C45.0264 28.4438 45.6157 29.1272 46.343 29.1272H54.893C54.1657 29.1272 53.5764 28.4445 53.5764 27.6018C53.5764 26.7592 54.1657 26.0771 54.893 26.0771H46.343Z" fill="url(#paint9_linear)"/>
<path d="M54.8928 29.1265C55.62 29.1265 56.2095 28.4439 56.2095 27.6018C56.2095 26.7598 55.62 26.0771 54.8928 26.0771C54.1657 26.0771 53.5762 26.7598 53.5762 27.6018C53.5762 28.4439 54.1657 29.1265 54.8928 29.1265Z" fill="#6D2B11"/>
<path d="M55.9041 26.4263H54.8928C54.3321 26.4263 53.8774 26.9523 53.8774 27.6016C53.8774 28.2509 54.3321 28.7776 54.8928 28.7776H55.9041V32.739H57.9708V28.5543C57.9681 27.3789 57.0441 26.4263 55.9041 26.4263Z" fill="url(#paint10_linear)"/>
<path d="M55.9041 26.4263H54.8928C54.3321 26.4263 53.8774 26.9523 53.8774 27.6016C53.8774 28.2509 54.3321 28.7776 54.8928 28.7776H55.9041V26.4263Z" fill="url(#paint11_radial)"/>
<path d="M54.3053 27.5999C54.3053 26.9506 54.7599 26.4246 55.3206 26.4246H54.8933C54.3326 26.4246 53.8779 26.9506 53.8779 27.5999C53.8779 28.2492 54.3326 28.7759 54.8933 28.7759H55.3206C54.7599 28.7779 54.3053 28.2519 54.3053 27.5999Z" fill="#EB9546"/>
<path d="M61.1888 72.1481C67.2415 72.1481 72.1481 67.2415 72.1481 61.1888C72.1481 55.1361 67.2415 50.2295 61.1888 50.2295C55.1361 50.2295 50.2295 55.1361 50.2295 61.1888C50.2295 67.2415 55.1361 72.1481 61.1888 72.1481Z" fill="url(#paint12_linear)"/>
<path opacity="0.3" d="M61.1161 72.0541C67.167 72.0541 72.0721 67.2033 72.0721 61.2194C72.0721 55.2356 67.167 50.3848 61.1161 50.3848C55.0653 50.3848 50.1602 55.2356 50.1602 61.2194C50.1602 67.2033 55.0653 72.0541 61.1161 72.0541Z" fill="url(#paint13_radial)"/>
<path opacity="0.3" d="M61.1161 50.3848C55.0655 50.3848 50.1602 55.2354 50.1602 61.2194C50.1602 64.6534 51.7762 67.7141 54.2968 69.6988C52.8021 67.8057 51.9901 65.4635 51.9922 63.0514C51.9922 57.0674 56.8975 52.2168 62.9481 52.2168C65.4218 52.2116 67.8248 53.0415 69.7681 54.5721C68.7379 53.2638 67.4236 52.2069 65.9246 51.4815C64.4257 50.756 62.7814 50.381 61.1161 50.3848ZM54.1335 54.2368C52.168 56.2022 51.0382 58.8513 50.9803 61.6303C50.9224 64.4093 51.9409 67.1031 53.8228 69.1488C53.7128 69.0474 53.6041 68.9448 53.4975 68.8381C51.5082 66.8112 50.3997 64.0808 50.4129 61.2409C50.4261 58.4009 51.5601 55.681 53.5681 53.6727C55.5761 51.6644 58.2959 50.5301 61.1358 50.5165C63.9758 50.5029 66.7063 51.6111 68.7335 53.6001C68.8401 53.7068 68.9437 53.8152 69.0441 53.9255C66.9986 52.0439 64.3049 51.0257 61.5262 51.0837C58.7475 51.1417 56.0987 52.2714 54.1335 54.2368Z" fill="#01CDBE"/>
<path d="M71.1476 53.8487L69.8143 52.5154C65.0089 47.71 57.2143 47.71 52.4143 52.5154C50.1071 54.8229 48.811 57.9523 48.811 61.2154C48.811 64.4784 50.1071 67.6079 52.4143 69.9154L53.7443 71.2487C58.5496 76.054 66.3443 76.054 71.1443 71.2487C73.4519 68.9416 74.7486 65.8125 74.7492 62.5494C74.7498 59.2863 73.4543 56.1567 71.1476 53.8487ZM67.0669 52.2354C66.8643 52.102 66.6578 51.9749 66.4476 51.854C66.6574 51.9736 66.8638 52.1007 67.0669 52.2354ZM51.8336 55.7487C51.7687 55.8585 51.7056 55.9696 51.6443 56.082C51.7043 55.9694 51.7683 55.8587 51.8329 55.7487H51.8336ZM51.6776 66.4154C51.7763 66.5932 51.8805 66.7709 51.9903 66.9487C51.8801 66.774 51.7756 66.5969 51.6769 66.4174L51.6776 66.4154ZM68.7336 68.838C66.7677 70.8037 64.1181 71.9334 61.3387 71.9909C58.5592 72.0484 55.8652 71.0293 53.8196 69.1467C52.4144 67.6197 51.4801 65.7194 51.129 63.6741C50.7779 61.6289 51.0249 59.5258 51.8405 57.6176C52.656 55.7094 54.0053 54.0773 55.7261 52.9175C57.447 51.7578 59.4662 51.1197 61.5409 51.08C61.6249 51.08 61.7089 51.08 61.7929 51.08C61.9609 51.08 62.1289 51.0845 62.2969 51.0934C62.3809 51.098 62.4649 51.1034 62.5483 51.1094C64.9697 51.2856 67.2598 52.2779 69.0443 53.924C70.9265 55.9699 71.9451 58.6641 71.8872 61.4435C71.8293 64.2229 70.6994 66.8723 68.7336 68.838Z" fill="#14A800"/>
<path d="M52.4155 69.92C57.2209 74.7254 65.0122 74.7254 69.8155 69.92C72.1227 67.6125 73.4188 64.4831 73.4188 61.22C73.4188 57.957 72.1227 54.8275 69.8155 52.52L71.1489 53.8534C73.456 56.1609 74.7521 59.2903 74.7521 62.5534C74.7521 65.8164 73.456 68.9458 71.1489 71.2534C66.3435 76.0587 58.5489 76.0587 53.7489 71.2534L52.4155 69.92Z" fill="url(#paint14_linear)"/>
<path d="M73.5374 71.1333L71.0281 73.6146C70.7486 73.8894 70.3724 74.0435 69.9804 74.0435C69.5884 74.0435 69.2122 73.8894 68.9327 73.6146L68.8227 73.5059C68.6853 73.3707 68.5761 73.2094 68.5016 73.0315C68.4271 72.8537 68.3887 72.6628 68.3887 72.4699C68.3887 72.2771 68.4271 72.0861 68.5016 71.9083C68.5761 71.7304 68.6853 71.5692 68.8227 71.4339L71.3321 68.9526C71.6115 68.6777 71.9878 68.5237 72.3797 68.5237C72.7717 68.5237 73.148 68.6777 73.4274 68.9526L73.5374 69.0613C73.6749 69.1965 73.7841 69.3578 73.8586 69.5356C73.9331 69.7135 73.9715 69.9044 73.9715 70.0972C73.9715 70.2901 73.9331 70.481 73.8586 70.6589C73.7841 70.8368 73.6749 70.998 73.5374 71.1333Z" fill="url(#paint15_radial)"/>
<path d="M72.6554 70.7128C71.7956 71.1848 71.0849 71.8877 70.6034 72.7422C70.5552 72.8275 70.5344 72.9255 70.5437 73.023C70.553 73.1205 70.592 73.2128 70.6554 73.2875L80.7221 85.1942C81.9883 86.6918 83.4111 88.0497 84.9661 89.2448C85.568 89.7064 86.3166 89.9349 87.0737 89.8881C87.8308 89.8413 88.5456 89.5224 89.0861 88.9902C89.6232 88.4618 89.9464 87.7539 89.9939 87.002C90.0414 86.2501 89.8097 85.5072 89.3434 84.9155C88.1318 83.3734 86.7587 81.9654 85.2474 80.7155L73.2067 70.7642C73.1305 70.7015 73.0372 70.6631 72.9389 70.654C72.8407 70.6448 72.7419 70.6653 72.6554 70.7128Z" fill="url(#paint16_linear)"/>
<path d="M73.2067 70.7642C73.1305 70.7015 73.0372 70.6631 72.9389 70.654C72.8407 70.6448 72.7419 70.6653 72.6554 70.7128C71.7957 71.1848 71.0849 71.8877 70.6034 72.7422C70.5552 72.8275 70.5344 72.9255 70.5437 73.023C70.553 73.1205 70.592 73.2129 70.6554 73.2875L71.7887 74.6309C71.4227 74.1982 72.6981 70.3462 73.9688 71.3962L73.2067 70.7642Z" fill="#6D2B11"/>
<path d="M68.7338 53.6C68.6671 53.5334 68.6051 53.4727 68.5398 53.4107L68.5185 53.3914C68.3358 53.218 68.1485 53.0525 67.9565 52.8947L67.8718 52.828C67.3607 52.4138 66.8126 52.0473 66.2345 51.7334C66.1605 51.694 66.0865 51.6547 66.0118 51.6167C65.2714 51.2384 64.4895 50.9475 63.6818 50.75C63.5978 50.7294 63.5131 50.71 63.4285 50.6914C63.26 50.654 63.0902 50.6212 62.9191 50.5927C62.7491 50.564 62.5778 50.5394 62.4065 50.5187C62.2351 50.498 62.0638 50.482 61.8918 50.4694C61.7198 50.4567 61.5478 50.4487 61.3751 50.4447C61.1165 50.4389 60.858 50.442 60.5998 50.454C60.5138 50.458 60.4278 50.4634 60.3418 50.4694C60.1698 50.482 59.9978 50.498 59.8265 50.5187C59.7411 50.5287 59.6551 50.54 59.5698 50.5527C58.4031 50.721 57.272 51.08 56.2218 51.6154C56.1471 51.6534 56.0731 51.6927 55.9991 51.732C55.4204 52.0458 54.8719 52.4122 54.3605 52.8267L54.2758 52.8934C54.0091 53.1156 53.7498 53.3507 53.4978 53.5987C52.1666 54.928 51.2072 56.583 50.7151 58.3987C50.6698 58.5667 50.6291 58.732 50.5918 58.904C50.2591 60.4274 50.2591 62.0046 50.5918 63.528C50.6291 63.6974 50.6698 63.8654 50.7151 64.0327C50.7889 64.3065 50.874 64.5776 50.9705 64.846C51.5064 66.3467 52.3697 67.7092 53.4978 68.8347C53.6045 68.9414 53.7131 69.044 53.8231 69.1454C52.418 67.6185 51.4837 65.7184 51.1325 63.6733C50.7814 61.6282 51.0283 59.5252 51.8435 57.6171C52.6588 55.709 54.0078 54.0769 55.7284 52.917C57.4489 51.7571 59.4678 51.1188 61.5425 51.0787C61.6265 51.0787 61.7105 51.0787 61.7945 51.0787C61.9625 51.0787 62.1305 51.0832 62.2985 51.092C62.3825 51.0967 62.4665 51.102 62.5498 51.108C64.9712 51.2843 67.2613 52.2766 69.0458 53.9227C68.9451 53.816 68.8418 53.7074 68.7338 53.6Z" fill="url(#paint17_linear)"/>
<defs>
<linearGradient id="paint0_linear" x1="17.3535" y1="65.4619" x2="82.6469" y2="65.4619" gradientUnits="userSpaceOnUse">
<stop stop-color="#C3D2C3" stop-opacity="0"/>
<stop offset="0.01" stop-color="#C3D2C3" stop-opacity="0.05"/>
<stop offset="0.04" stop-color="#C3D2C3" stop-opacity="0.3"/>
<stop offset="0.08" stop-color="#C3D2C3" stop-opacity="0.51"/>
<stop offset="0.11" stop-color="#C3D2C3" stop-opacity="0.69"/>
<stop offset="0.15" stop-color="#C3D2C3" stop-opacity="0.83"/>
<stop offset="0.19" stop-color="#C3D2C3" stop-opacity="0.92"/>
<stop offset="0.22" stop-color="#C3D2C3" stop-opacity="0.98"/>
<stop offset="0.26" stop-color="#C3D2C3"/>
<stop offset="0.34" stop-color="#C3D2C3"/>
<stop offset="0.82" stop-color="#C3D2C3"/>
<stop offset="0.86" stop-color="#C3D2C3" stop-opacity="0.78"/>
<stop offset="0.96" stop-color="#C3D2C3" stop-opacity="0.23"/>
<stop offset="1" stop-color="#C3D2C3" stop-opacity="0.01"/>
</linearGradient>
<linearGradient id="paint1_linear" x1="66.2204" y1="34.5812" x2="71.6031" y2="34.5812" gradientUnits="userSpaceOnUse">
<stop stop-color="#6D2B11"/>
<stop offset="0.18" stop-color="#652810"/>
<stop offset="0.63" stop-color="#56220F"/>
<stop offset="1" stop-color="#51200F"/>
</linearGradient>
<linearGradient id="paint2_linear" x1="68.5068" y1="51.0504" x2="73.3775" y2="51.0504" gradientUnits="userSpaceOnUse">
<stop stop-color="#6D2B11"/>
<stop offset="0.33" stop-color="#622710"/>
<stop offset="1" stop-color="#51200F"/>
</linearGradient>
<linearGradient id="paint3_linear" x1="5282.31" y1="22953.7" x2="5733.64" y2="22953.7" gradientUnits="userSpaceOnUse">
<stop stop-color="#6D2B11"/>
<stop offset="0.33" stop-color="#622710"/>
<stop offset="1" stop-color="#51200F"/>
</linearGradient>
<linearGradient id="paint4_linear" x1="46.1443" y1="66.0144" x2="46.1443" y2="35.2737" gradientUnits="userSpaceOnUse">
<stop stop-color="#6D2B11"/>
<stop offset="1" stop-color="#BC5118"/>
</linearGradient>
<linearGradient id="paint5_linear" x1="48.4776" y1="54.2617" x2="48.4776" y2="32.739" gradientUnits="userSpaceOnUse">
<stop stop-color="#6D2B11"/>
<stop offset="0.21" stop-color="#722D11"/>
<stop offset="0.45" stop-color="#803413"/>
<stop offset="0.7" stop-color="#973F15"/>
<stop offset="0.97" stop-color="#B84F18"/>
<stop offset="1" stop-color="#BC5118"/>
</linearGradient>
<linearGradient id="paint6_linear" x1="44.0417" y1="55.6844" x2="47.991" y2="51.735" gradientUnits="userSpaceOnUse">
<stop offset="0.08" stop-color="#FCCD81"/>
<stop offset="0.89" stop-color="#EB9546"/>
</linearGradient>
<linearGradient id="paint7_linear" x1="2874.46" y1="2201.02" x2="2977.24" y2="2022.61" gradientUnits="userSpaceOnUse">
<stop offset="0.08" stop-color="#FCCD81"/>
<stop offset="0.89" stop-color="#EB9546"/>
</linearGradient>
<linearGradient id="paint8_linear" x1="43.1385" y1="29.5823" x2="47.2291" y2="29.5823" gradientUnits="userSpaceOnUse">
<stop offset="0.05" stop-color="#FCCD81"/>
<stop offset="0.54" stop-color="#EB9546"/>
</linearGradient>
<linearGradient id="paint9_linear" x1="49.9597" y1="29.1272" x2="49.9597" y2="26.0771" gradientUnits="userSpaceOnUse">
<stop stop-color="#6D2B11"/>
<stop offset="0.15" stop-color="#722D11"/>
<stop offset="0.32" stop-color="#803413"/>
<stop offset="0.5" stop-color="#973F15"/>
<stop offset="0.69" stop-color="#B84F18"/>
<stop offset="1" stop-color="#BC5118"/>
</linearGradient>
<linearGradient id="paint10_linear" x1="53.8774" y1="29.5823" x2="57.9681" y2="29.5823" gradientUnits="userSpaceOnUse">
<stop offset="0.52" stop-color="#FCCD81"/>
<stop offset="0.89" stop-color="#EB9546"/>
</linearGradient>
<radialGradient id="paint11_radial" cx="0" cy="0" r="1" gradientUnits="userSpaceOnUse" gradientTransform="translate(56.7094 28.9436) scale(2.32667)">
<stop offset="0.52" stop-color="#EB9546"/>
<stop offset="0.89" stop-color="#EB9546" stop-opacity="0"/>
</radialGradient>
<linearGradient id="paint12_linear" x1="50.2288" y1="61.1888" x2="72.1481" y2="61.1888" gradientUnits="userSpaceOnUse">
<stop stop-color="white"/>
<stop offset="0.64" stop-color="#FDFEFD"/>
<stop offset="0.92" stop-color="#F6F9F6"/>
<stop offset="1" stop-color="#F2F7F2"/>
</linearGradient>
<radialGradient id="paint13_radial" cx="0" cy="0" r="1" gradientUnits="userSpaceOnUse" gradientTransform="translate(57.0369 58.4524) scale(18.9913 18.7258)">
<stop stop-color="#01CDBE" stop-opacity="0"/>
<stop offset="1" stop-color="#01CDBE"/>
</radialGradient>
<linearGradient id="paint14_linear" x1="52.4155" y1="63.686" x2="74.7515" y2="63.686" gradientUnits="userSpaceOnUse">
<stop offset="0.45" stop-color="#14A800"/>
<stop offset="0.61" stop-color="#14A500"/>
<stop offset="0.72" stop-color="#149D00"/>
<stop offset="0.81" stop-color="#138E00"/>
<stop offset="0.89" stop-color="#127900"/>
<stop offset="0.93" stop-color="#126B00"/>
</linearGradient>
<radialGradient id="paint15_radial" cx="0" cy="0" r="1" gradientUnits="userSpaceOnUse" gradientTransform="translate(73.5655 72.6933) rotate(-44.7149) scale(8.67847 3.58334)">
<stop stop-color="#AD8D05"/>
<stop offset="0.26" stop-color="#AF8E08"/>
<stop offset="0.43" stop-color="#B49311"/>
<stop offset="0.58" stop-color="#BE9B20"/>
<stop offset="0.7" stop-color="#CAA533"/>
<stop offset="0.77" stop-color="#D1AB3F"/>
<stop offset="0.89" stop-color="#E5BB5D"/>
<stop offset="1" stop-color="#FCCD81"/>
</radialGradient>
<linearGradient id="paint16_linear" x1="77.9834" y1="82.5908" x2="82.6387" y2="77.9355" gradientUnits="userSpaceOnUse">
<stop stop-color="#BC5118"/>
<stop offset="0.24" stop-color="#B84F18"/>
<stop offset="0.46" stop-color="#AD4A17"/>
<stop offset="0.67" stop-color="#9B4115"/>
<stop offset="0.88" stop-color="#813413"/>
<stop offset="1" stop-color="#6D2B11"/>
</linearGradient>
<linearGradient id="paint17_linear" x1="49.8465" y1="64.47" x2="66.4924" y2="50.8133" gradientUnits="userSpaceOnUse">
<stop stop-color="#126B00"/>
<stop offset="1" stop-color="#14A800"/>
</linearGradient>
</defs>
</svg>
