<svg width="100" height="101" viewBox="0 0 100 101" fill="none" xmlns="http://www.w3.org/2000/svg">
<path d="M50 90.5C72.0914 90.5 90 72.5914 90 50.5C90 28.4086 72.0914 10.5 50 10.5C27.9086 10.5 10 28.4086 10 50.5C10 72.5914 27.9086 90.5 50 90.5Z" fill="#E4EBE4"/>
<path d="M69.2797 80.7964H33.231C32.9155 80.7964 32.6597 81.0522 32.6597 81.3677C32.6597 81.6833 32.9155 81.9391 33.231 81.9391H69.2797C69.5952 81.9391 69.851 81.6833 69.851 81.3677C69.851 81.0522 69.5952 80.7964 69.2797 80.7964Z" fill="url(#paint0_linear)"/>
<path d="M37.5055 18.1361C37.3315 17.855 36.9625 17.7682 36.6814 17.9422C36.4003 18.1162 36.3134 18.4852 36.4875 18.7663L65.0051 64.8323C65.1791 65.1134 65.5481 65.2003 65.8292 65.0262C66.1103 64.8522 66.1972 64.4832 66.0231 64.2021L37.5055 18.1361Z" fill="url(#paint1_linear)"/>
<path d="M64.2348 63.5925C64.0348 63.2658 65.0681 62.6631 65.4861 63.3385L64.8474 62.3071L63.7808 62.8625L64.2348 63.5925Z" fill="#9AAA97"/>
<path d="M61.372 58.9665C61.172 58.6398 62.2046 58.0372 62.6226 58.7125L61.984 57.6812L60.938 58.2658L61.372 58.9665Z" fill="#9AAA97"/>
<path d="M39.6454 23.8679C39.4454 23.5412 40.4787 22.9385 40.8967 23.6139L40.258 22.5825L39.2207 23.1825L39.6454 23.8679Z" fill="#9AAA97"/>
<path d="M39.9521 57.3245C40.0941 57.4264 40.2291 57.5378 40.3561 57.6578L40.3768 57.6225C43.6709 59.8421 47.5653 61.0008 51.537 60.9431C55.5087 60.8854 59.3678 59.6141 62.5961 57.2998L62.6001 57.2965C65.1123 55.4964 67.1589 53.123 68.5698 50.3733C69.9808 47.6236 70.7154 44.5771 70.7128 41.4865C70.7128 30.8198 62.1288 22.1572 51.4908 22.0312C40.8341 21.9045 31.9954 30.4692 31.8001 41.1245C31.6801 47.8032 34.9254 53.7305 39.9521 57.3245Z" fill="url(#paint2_radial)"/>
<path d="M61.6069 57.9665L61.5342 58.0119C61.4675 58.0545 61.3969 58.0972 61.3275 58.1392L61.2935 58.1599C61.0371 58.3145 60.7769 58.4634 60.5129 58.6065L60.4462 58.6412C60.3749 58.6799 60.3035 58.7172 60.2315 58.7545L60.1362 58.8045C60.0695 58.8392 59.9995 58.8712 59.9302 58.9079L59.8229 58.9619L59.6229 59.0592L59.5095 59.1132C59.4429 59.1445 59.3762 59.1759 59.3095 59.2065L59.1935 59.2592L58.9895 59.3492L58.8749 59.3979C58.8082 59.4279 58.7355 59.4572 58.6655 59.4859L58.5609 59.5285L58.3389 59.6179L58.2795 59.6405C58.0178 59.7419 57.7533 59.8374 57.4862 59.9272L57.3642 59.9685C57.2975 59.9905 57.2309 60.0119 57.1642 60.0352L57.0215 60.0805L56.8295 60.1385L56.6775 60.1839L56.4889 60.2372L56.3302 60.2805L56.1442 60.3299L55.9795 60.3719L55.7962 60.4165L55.6242 60.4565L55.4455 60.4972L55.2609 60.5365C55.2042 60.5479 55.1482 60.5605 55.0922 60.5712C55.0155 60.5865 54.9395 60.6012 54.8629 60.6152L54.6582 60.6525C54.5675 60.6685 54.4769 60.6845 54.3862 60.6992L54.2369 60.7219L54.0229 60.7545L53.8635 60.7759C53.7969 60.7852 53.7262 60.7945 53.6569 60.8025L53.4942 60.8219L53.2882 60.8445L53.1249 60.8605L52.9162 60.8792L52.7542 60.8925L52.5402 60.9072C52.4873 60.9112 52.4347 60.9145 52.3822 60.9172C52.3075 60.9219 52.2329 60.9252 52.1582 60.9285L52.0082 60.9352C51.9255 60.9352 51.8429 60.9405 51.7602 60.9425L51.6329 60.9459C51.5089 60.9485 51.3849 60.9499 51.2609 60.9499H51.2489C51.1289 60.9499 51.0095 60.9499 50.8902 60.9499L50.7569 60.9465L50.5222 60.9399L50.3682 60.9325C50.3015 60.9325 50.2289 60.9265 50.1595 60.9225L49.9929 60.9125L49.7995 60.8992L49.6235 60.8852L49.4422 60.8699L49.2589 60.8512L49.0869 60.8332L48.8969 60.8112L48.7349 60.7912L48.5349 60.7645C48.4842 60.7572 48.4335 60.7505 48.3835 60.7425C48.3169 60.7325 48.2469 60.7225 48.1789 60.7112L48.0382 60.6885L47.8249 60.6519L47.6962 60.6285L47.4735 60.5865L47.3602 60.5632L47.1249 60.5145L47.0309 60.4939C46.9462 60.4752 46.8622 60.4559 46.7782 60.4359C46.7555 60.4312 46.7335 60.4252 46.7115 60.4199C46.6189 60.3979 46.5262 60.3752 46.4342 60.3532L46.4075 60.3465C44.4607 59.8436 42.604 59.0406 40.9042 57.9665C42.7115 55.5259 46.6669 53.8332 51.2555 53.8332C55.8442 53.8332 59.8002 55.5259 61.6069 57.9665ZM70.7129 41.4799C70.7129 41.323 70.7109 41.1674 70.7069 41.0132C70.7069 40.9592 70.7069 40.9059 70.7016 40.8525C70.7016 40.7479 70.6949 40.6439 70.6895 40.5399C70.6895 40.4732 70.6829 40.4132 70.6789 40.3499C70.6736 40.2572 70.6682 40.1639 70.6616 40.0705C70.6569 40.0039 70.6509 39.9372 70.6456 39.8705C70.6382 39.7819 70.6302 39.6939 70.6222 39.6039C70.6156 39.5372 70.6082 39.4652 70.6009 39.3959C70.5916 39.3105 70.5822 39.2252 70.5715 39.1405C70.5635 39.0699 70.5542 38.9999 70.5456 38.9299C70.5342 38.8465 70.5229 38.7632 70.5109 38.6799C70.5002 38.6092 70.4902 38.5385 70.4789 38.4679C70.4662 38.3865 70.4529 38.3045 70.4389 38.2232C70.4269 38.1525 70.4156 38.0812 70.4022 38.0105C70.3889 37.9399 70.3722 37.8499 70.3569 37.7699C70.3415 37.6899 70.3296 37.6279 70.3156 37.5579C70.3016 37.4879 70.2815 37.3999 70.2642 37.3212C70.2336 37.1812 70.2016 37.0419 70.1682 36.9032C70.1664 36.8977 70.1648 36.8922 70.1635 36.8865V36.8812C70.1482 36.8179 70.1336 36.7545 70.1176 36.6912C70.0962 36.6065 70.0729 36.5225 70.0509 36.4379C70.0349 36.3772 70.0189 36.3159 70.0022 36.2559C69.9782 36.1699 69.9529 36.0852 69.9282 35.9999C69.9109 35.9419 69.8942 35.8832 69.8762 35.8252C69.8642 35.7845 69.8509 35.7439 69.8382 35.7032C69.8242 35.6585 69.8102 35.6132 69.7956 35.5699C69.7776 35.5139 69.7602 35.4579 69.7416 35.4025C69.7129 35.3152 69.6836 35.2279 69.6536 35.1412C69.6356 35.0885 69.6169 35.0365 69.5982 34.9839C69.5669 34.8952 69.5316 34.8059 69.5016 34.7172L69.4475 34.5739C69.4122 34.4819 69.3769 34.3899 69.3402 34.2979C69.3242 34.2572 69.3076 34.2165 69.2909 34.1752C69.2509 34.0779 69.2107 33.9808 69.1702 33.8839L69.1336 33.7999C68.8656 33.1779 68.5651 32.5704 68.2336 31.9799L68.2269 31.9672C68.1633 31.8552 68.0991 31.7441 68.0342 31.6339L68.0102 31.5932C67.9462 31.4856 67.8815 31.379 67.8162 31.2732L67.7876 31.2265C67.7213 31.1203 67.6547 31.0152 67.5876 30.9112L67.5602 30.8699C67.49 30.7623 67.4191 30.6559 67.3476 30.5505L67.3329 30.5285C66.9404 29.9544 66.5178 29.4014 66.0669 28.8719C60.8669 29.3139 56.7275 33.6852 56.6902 39.0052C56.6761 40.894 57.1846 42.75 58.1595 44.3678C59.1343 45.9857 60.5376 47.3025 62.2142 48.1725C62.5886 48.367 62.8839 48.6854 63.0496 49.0734C63.2154 49.4614 63.2413 49.8949 63.1229 50.2999L63.1182 50.3159C62.3849 52.8492 62.3462 55.2972 62.8775 57.0912C64.8347 55.6316 66.5014 53.8186 67.7915 51.7459V51.7419C67.8402 51.6632 67.8882 51.5852 67.9356 51.5059L67.9442 51.4925C67.9895 51.4165 68.0349 51.3405 68.0775 51.2639C68.0822 51.2565 68.0862 51.2492 68.0902 51.2419C68.1335 51.1685 68.1756 51.0945 68.2176 51.0199L68.2342 50.9899C68.2749 50.9179 68.3142 50.8459 68.3536 50.7739C68.3609 50.7612 68.3675 50.7485 68.3742 50.7359C68.412 50.6661 68.4493 50.5961 68.4862 50.5259L68.5102 50.4805C68.5456 50.4139 68.5809 50.3439 68.6156 50.2752C68.6249 50.2579 68.6329 50.2405 68.6416 50.2239C68.6756 50.1572 68.7082 50.0905 68.7416 50.0239L68.7696 49.9665C68.8016 49.8999 68.8362 49.8332 68.8635 49.7665L68.8936 49.7032C68.9236 49.6365 68.9529 49.5745 68.9822 49.5099L69.0135 49.4432L69.0975 49.2525C69.1082 49.2285 69.1189 49.2039 69.1289 49.1799C69.1564 49.1172 69.1831 49.0545 69.2089 48.9919L69.2409 48.9145C69.2662 48.8532 69.2915 48.7912 69.3162 48.7299C69.3275 48.7025 69.3382 48.6745 69.3496 48.6472L69.4202 48.4652C69.4316 48.4365 69.4422 48.4072 69.4536 48.3785C69.4762 48.3192 69.4982 48.2592 69.5202 48.1992C69.5316 48.1692 69.5422 48.1385 69.5536 48.1079C69.5749 48.0492 69.5956 47.9905 69.6162 47.9312C69.6276 47.8999 69.6389 47.8645 69.6496 47.8359C69.6696 47.7779 69.6896 47.7199 69.7089 47.6612C69.7202 47.6285 69.7309 47.5945 69.7416 47.5625C69.7609 47.5052 69.7795 47.4472 69.7976 47.3892L69.8295 47.2879C69.8475 47.2305 69.8649 47.1732 69.8822 47.1159L69.9142 47.0105C69.9302 46.9545 69.9469 46.8979 69.9629 46.8412C69.9735 46.8052 69.9836 46.7685 69.9942 46.7325C70.0096 46.6765 70.0249 46.6205 70.0396 46.5645C70.0502 46.5272 70.0602 46.4899 70.0696 46.4525C70.0842 46.3972 70.0989 46.3419 70.1129 46.2859C70.1222 46.2479 70.1322 46.2099 70.1416 46.1712C70.1556 46.1165 70.1682 46.0612 70.1815 46.0059L70.2096 45.8885C70.2222 45.8339 70.2342 45.7785 70.2462 45.7239C70.2555 45.6839 70.2642 45.6445 70.2729 45.6045L70.3069 45.4412C70.3156 45.3999 70.3242 45.3592 70.3322 45.3185C70.3429 45.2645 70.3535 45.2105 70.3635 45.1559L70.3876 45.0312C70.3969 44.9779 70.4069 44.9239 70.4162 44.8699L70.4382 44.7425L70.4642 44.5819C70.4709 44.5392 70.4782 44.4965 70.4849 44.4532C70.4929 44.3992 70.5009 44.3459 70.5082 44.2919C70.5149 44.2485 70.5209 44.2052 70.5269 44.1585C70.5329 44.1119 70.5415 44.0512 70.5482 43.9972C70.5536 43.9532 70.5596 43.9099 70.5649 43.8639C70.5715 43.8099 70.5776 43.7565 70.5836 43.7025C70.5889 43.6585 70.5942 43.6139 70.5989 43.5692L70.6149 43.4085C70.6189 43.3632 70.6236 43.3192 70.6282 43.2752C70.6329 43.2312 70.6369 43.1679 70.6416 43.1139C70.6462 43.0599 70.6496 43.0239 70.6529 42.9805C70.6562 42.9372 70.6602 42.8719 70.6642 42.8179C70.6682 42.7639 70.6702 42.7279 70.6729 42.6845C70.6729 42.6292 70.6789 42.5739 70.6822 42.5185C70.6822 42.4745 70.6869 42.4305 70.6889 42.3852C70.6889 42.3285 70.6936 42.2712 70.6956 42.2139C70.6956 42.1712 70.6956 42.1285 70.7002 42.0859C70.7002 42.0239 70.7002 41.9619 70.7049 41.8999C70.7049 41.8619 70.7049 41.8232 70.7049 41.7845C70.7049 41.7025 70.7049 41.6199 70.7049 41.5372V41.4765L70.7129 41.4799ZM54.4042 26.6925C57.5449 27.1359 60.3569 26.3499 61.4042 24.8832C61.3555 24.8532 61.3069 24.8245 61.2582 24.7952C61.1489 24.7285 61.0382 24.6619 60.9249 24.6005L60.7802 24.5185L60.5802 24.4065L60.4235 24.3225C60.3142 24.2639 60.2035 24.2065 60.0902 24.1492L59.9335 24.0685L59.7335 23.9705L59.5629 23.8892C59.4624 23.8412 59.3611 23.7943 59.2589 23.7485C59.1922 23.7185 59.1255 23.6885 59.0589 23.6599L58.8655 23.5765L58.6802 23.4999L58.4962 23.4239C58.3869 23.3794 58.2771 23.3365 58.1669 23.2952L57.9875 23.2285C57.9209 23.2025 57.8462 23.1772 57.7755 23.1519L57.5982 23.0892C57.4822 23.0499 57.3662 23.0105 57.2502 22.9725L57.1002 22.9259L56.8502 22.8485L56.6829 22.7992C56.5862 22.7712 56.4895 22.7439 56.3922 22.7179L56.2302 22.6739C56.1229 22.6459 56.0155 22.6185 55.9069 22.5919L55.7529 22.5545C55.6569 22.5319 55.5602 22.5099 55.4635 22.4879L55.3395 22.4605C55.2062 22.4325 55.0782 22.4065 54.9462 22.3812L54.8129 22.3559C54.7122 22.3372 54.6129 22.3192 54.5089 22.3025L54.3755 22.2805C54.2422 22.2588 54.1062 22.2383 53.9675 22.2192L53.8662 22.2059C53.7542 22.1905 53.6422 22.1765 53.5329 22.1632L53.4042 22.1485C53.2629 22.1332 53.1209 22.1185 52.9789 22.1059H52.9462C52.8129 22.0939 52.6778 22.0836 52.5409 22.0752L52.4169 22.0679C52.2929 22.0605 52.1689 22.0539 52.0442 22.0492L51.9722 22.0459C51.8264 22.0374 51.6802 22.0332 51.5335 22.0332H51.4202C51.3102 22.0332 51.2009 22.0332 51.0915 22.0332H50.9335C50.8169 22.0332 50.6995 22.0379 50.5829 22.0419L50.4775 22.0452C50.3215 22.0519 50.166 22.0601 50.0109 22.0699H49.9869C49.8393 22.0801 49.6927 22.0914 49.5469 22.1039L49.4622 22.1119C49.3289 22.1248 49.1955 22.1383 49.0622 22.1525L49.0049 22.1592C48.6818 22.197 48.3611 22.2428 48.0429 22.2965C48.0962 24.2672 50.8242 26.1879 54.4042 26.6925ZM41.4195 39.4259C42.9804 38.889 44.3597 37.9259 45.4014 36.6455C46.443 35.3651 47.1055 33.8187 47.3136 32.1813C47.5217 30.5439 47.2673 28.881 46.5791 27.3807C45.8909 25.8805 44.7964 24.6028 43.4195 23.6925C37.2822 26.4132 32.7762 32.2205 31.9389 39.1485V39.1645C31.9024 39.4734 31.8729 39.7845 31.8502 40.0979C31.8502 40.1339 31.8455 40.1699 31.8435 40.2065C31.8355 40.3219 31.8295 40.4372 31.8235 40.5532L31.8175 40.6785C31.8113 40.8274 31.8069 40.9763 31.8042 41.1252C31.8042 41.2399 31.8042 41.3552 31.8042 41.4705C31.8042 41.4965 31.8042 41.5225 31.8042 41.5485C31.8042 41.6552 31.8042 41.7612 31.8075 41.8679V41.9752C31.8109 42.0952 31.8142 42.2159 31.8195 42.3359C31.8195 42.3439 31.8195 42.3525 31.8195 42.3612C31.8258 42.491 31.8329 42.6208 31.8409 42.7505L31.8469 42.8392C31.8549 42.9479 31.8629 43.0565 31.8722 43.1645C31.8722 43.1879 31.8755 43.2112 31.8782 43.2312C31.8895 43.3645 31.9029 43.4979 31.9169 43.6312V43.6492C31.9306 43.7745 31.9458 43.8996 31.9622 44.0245L31.9702 44.0852C32.0062 44.3519 32.0473 44.6185 32.0935 44.8852C32.0943 44.8915 32.0954 44.8977 32.0969 44.9039C32.1202 45.0372 32.1455 45.1705 32.1715 45.3039C32.3597 46.2525 32.6191 47.1856 32.9475 48.0952C33.1235 48.1165 33.3015 48.1299 33.4809 48.1339C34.2499 48.1527 35.015 48.0175 35.731 47.7361C36.4469 47.4546 37.0993 47.0328 37.6497 46.4953C38.2001 45.9578 38.6374 45.3156 38.9357 44.6065C39.2341 43.8975 39.3875 43.1358 39.3869 42.3665V42.3405C39.3809 41.0332 40.1829 39.8472 41.4195 39.4232V39.4259Z" fill="url(#paint3_radial)"/>
<path d="M52.6955 65.3794H49.8154V77.9388H52.6955V65.3794Z" fill="url(#paint4_linear)"/>
<path d="M49.8154 70.4331C49.8154 70.0951 52.6955 70.0005 52.6955 71.0018V68.9185H49.8154V70.4331Z" fill="#65735B"/>
<path d="M53.6143 66.2058H48.897V69.1744H53.6143V66.2058Z" fill="url(#paint5_linear)"/>
<path d="M48.897 67.1666C48.897 66.6126 53.6143 66.4573 53.6143 68.0999V65.8779H48.897V67.1666Z" fill="#9AAA97"/>
<path d="M65.3114 58.0998C64.4192 58.8536 63.4679 59.5347 62.4668 60.1365C52.3661 66.2098 38.8601 62.8998 32.7027 52.8551C26.4461 42.6478 29.6127 29.2931 39.8034 22.9851C40.7163 22.4206 41.6696 21.9242 42.6554 21.4998C42.8621 21.41 43.0469 21.2767 43.1974 21.109C43.3478 20.9413 43.4603 20.743 43.5272 20.5279C43.594 20.3127 43.6136 20.0856 43.5846 19.8622C43.5557 19.6387 43.4789 19.4242 43.3594 19.2331C43.1627 18.9137 42.8579 18.6755 42.5003 18.562C42.1428 18.4484 41.7564 18.467 41.4114 18.6144C40.2845 19.1011 39.1949 19.6699 38.1514 20.3164C26.4667 27.5491 22.8507 42.8798 30.0734 54.5711C37.3054 66.2791 52.6614 69.8998 64.3601 62.6571C65.4027 62.0118 66.3964 61.2907 67.3334 60.4998C67.6198 60.2568 67.8094 59.919 67.8675 59.548C67.9256 59.177 67.8485 58.7974 67.6501 58.4785C67.532 58.2873 67.3742 58.1238 67.1873 57.999C67.0005 57.8742 66.789 57.791 66.5672 57.7551C66.3454 57.7192 66.1185 57.7314 65.9018 57.7908C65.6852 57.8503 65.4838 57.9557 65.3114 58.0998Z" fill="url(#paint6_linear)"/>
<path d="M45.5336 75.1394H56.9802C57.9554 75.1394 58.8905 75.5268 59.58 76.2163C60.2695 76.9058 60.6569 77.841 60.6569 78.8161V81.9394H41.8569V78.8161C41.8569 77.841 42.2443 76.9058 42.9338 76.2163C43.6233 75.5268 44.5585 75.1394 45.5336 75.1394Z" fill="url(#paint7_radial)"/>
<path d="M69.0229 36.5107L69.2363 35.788C69.3123 35.5214 69.4477 35.2755 69.6323 35.0687C69.6656 35.0314 69.699 34.9947 69.7376 34.96C69.4137 34.5376 68.9655 34.2273 68.4561 34.0727C67.9467 33.9181 67.4017 33.9269 66.8976 34.098C66.3935 34.2691 65.9556 34.5939 65.6456 35.0266C65.3355 35.4593 65.1688 35.9783 65.1689 36.5107H69.0229Z" fill="url(#paint8_radial)"/>
<path d="M69.0225 36.5106H72.2665L72.4465 35.8373C72.507 35.6041 72.6135 35.3853 72.7598 35.1939C72.7865 35.1593 72.8145 35.1273 72.8438 35.0926C72.6523 34.8743 72.4185 34.6971 72.1566 34.5716C71.8947 34.4461 71.6101 34.375 71.32 34.3626C71.0298 34.3501 70.7402 34.3966 70.4685 34.4991C70.1968 34.6017 69.9487 34.7582 69.7391 34.9593C69.7025 34.9939 69.6671 35.0306 69.6338 35.0679C69.4492 35.2748 69.3139 35.5207 69.2378 35.7873L69.0225 36.5106Z" fill="url(#paint9_radial)"/>
<path d="M31.4667 49.9439C31.3315 49.5514 31.1032 49.1976 30.8013 48.9126C30.4994 48.6277 30.133 48.4202 29.7333 48.3079L29.706 48.2999C29.6567 48.2859 29.606 48.2733 29.5553 48.2619L29.5273 48.2559C29.476 48.2453 29.4233 48.2359 29.3713 48.2286H29.3467C29.292 48.2213 29.2373 48.2146 29.182 48.2106H29.1653C29.1067 48.2066 29.048 48.2046 28.988 48.2046C28.2904 48.2048 27.6213 48.4816 27.1276 48.9744C26.6338 49.4672 26.3556 50.1357 26.354 50.8333H31.7833L31.4667 49.9439Z" fill="url(#paint10_radial)"/>
<path d="M33.4092 46.4148C32.6945 46.4144 31.9903 46.5875 31.3572 46.9192C30.7241 47.251 30.181 47.7315 29.7746 48.3195L29.7339 48.3081C30.1335 48.4204 30.5 48.6279 30.8019 48.9129C31.1037 49.1978 31.332 49.5516 31.4672 49.9441L31.7832 50.8335H37.8299C37.8294 49.6614 37.3634 48.5375 36.5344 47.7089C35.7054 46.8803 34.5813 46.4148 33.4092 46.4148Z" fill="url(#paint11_radial)"/>
<path d="M76.6087 36.5109C76.6084 36.0737 76.475 35.6471 76.2261 35.2877C75.9773 34.9283 75.6248 34.6532 75.2157 34.4992C74.8066 34.3452 74.3603 34.3195 73.9362 34.4256C73.5121 34.5316 73.1304 34.7644 72.842 35.0929C72.8127 35.1255 72.7846 35.1595 72.758 35.1942C72.6117 35.3856 72.5052 35.6044 72.4447 35.8375L72.2646 36.5109H76.6087Z" fill="url(#paint12_radial)"/>
<defs>
<linearGradient id="paint0_linear" x1="32.6597" y1="81.3677" x2="69.851" y2="81.3677" gradientUnits="userSpaceOnUse">
<stop stop-color="#C3D2C3" stop-opacity="0"/>
<stop offset="0.01" stop-color="#C3D2C3" stop-opacity="0.05"/>
<stop offset="0.06" stop-color="#C3D2C3" stop-opacity="0.3"/>
<stop offset="0.12" stop-color="#C3D2C3" stop-opacity="0.51"/>
<stop offset="0.18" stop-color="#C3D2C3" stop-opacity="0.69"/>
<stop offset="0.23" stop-color="#C3D2C3" stop-opacity="0.83"/>
<stop offset="0.28" stop-color="#C3D2C3" stop-opacity="0.92"/>
<stop offset="0.34" stop-color="#C3D2C3" stop-opacity="0.98"/>
<stop offset="0.39" stop-color="#C3D2C3"/>
<stop offset="0.44" stop-color="#C3D2C3"/>
<stop offset="0.72" stop-color="#C3D2C3"/>
<stop offset="0.78" stop-color="#C3D2C3" stop-opacity="0.78"/>
<stop offset="0.93" stop-color="#C3D2C3" stop-opacity="0.23"/>
<stop offset="1" stop-color="#C3D2C3" stop-opacity="0.01"/>
</linearGradient>
<linearGradient id="paint1_linear" x1="50.9347" y1="41.8905" x2="51.755" y2="41.3836" gradientUnits="userSpaceOnUse">
<stop stop-color="#D5E0D5"/>
<stop offset="0.23" stop-color="#D0DCD0"/>
<stop offset="0.51" stop-color="#C2CFC1"/>
<stop offset="0.82" stop-color="#ACBAA9"/>
<stop offset="1" stop-color="#9AAA97"/>
</linearGradient>
<radialGradient id="paint2_radial" cx="0" cy="0" r="1" gradientUnits="userSpaceOnUse" gradientTransform="translate(46.7948 35.1325) scale(23.1047)">
<stop offset="0.68" stop-color="#01CDBE"/>
<stop offset="0.78" stop-color="#02B9A9"/>
<stop offset="1" stop-color="#038474"/>
</radialGradient>
<radialGradient id="paint3_radial" cx="0" cy="0" r="1" gradientUnits="userSpaceOnUse" gradientTransform="translate(45.0342 35.5539) scale(24.9727)">
<stop offset="0.68" stop-color="#14A800"/>
<stop offset="0.8" stop-color="#139300"/>
<stop offset="1" stop-color="#126B00"/>
</radialGradient>
<linearGradient id="paint4_linear" x1="49.8154" y1="71.6594" x2="52.6955" y2="71.6594" gradientUnits="userSpaceOnUse">
<stop offset="0.52" stop-color="#9AAA97"/>
<stop offset="0.65" stop-color="#91A08C"/>
<stop offset="0.86" stop-color="#788670"/>
<stop offset="1" stop-color="#65735B"/>
</linearGradient>
<linearGradient id="paint5_linear" x1="48.897" y1="67.6905" x2="53.6143" y2="67.6905" gradientUnits="userSpaceOnUse">
<stop offset="0.52" stop-color="#C3D2C3"/>
<stop offset="0.68" stop-color="#B9C8B8"/>
<stop offset="0.96" stop-color="#9FAF9C"/>
<stop offset="1" stop-color="#9AAA97"/>
</linearGradient>
<linearGradient id="paint6_linear" x1="20032.5" y1="37361" x2="34224.7" y2="30298.9" gradientUnits="userSpaceOnUse">
<stop offset="0.52" stop-color="#C3D2C3"/>
<stop offset="0.68" stop-color="#B9C8B8"/>
<stop offset="0.96" stop-color="#9FAF9C"/>
<stop offset="1" stop-color="#9AAA97"/>
</linearGradient>
<radialGradient id="paint7_radial" cx="0" cy="0" r="1" gradientUnits="userSpaceOnUse" gradientTransform="translate(47.0429 76.0607) rotate(-6.3402) scale(19.2903 7.01467)">
<stop offset="0.53" stop-color="#BC5118"/>
<stop offset="0.68" stop-color="#A74716"/>
<stop offset="0.98" stop-color="#702C11"/>
<stop offset="1" stop-color="#6D2B11"/>
</radialGradient>
<radialGradient id="paint8_radial" cx="0" cy="0" r="1" gradientUnits="userSpaceOnUse" gradientTransform="translate(66.5189 34.4507) scale(2.97134)">
<stop offset="0.61" stop-color="white"/>
<stop offset="0.93" stop-color="#D5E0D5"/>
</radialGradient>
<radialGradient id="paint9_radial" cx="0" cy="0" r="1" gradientUnits="userSpaceOnUse" gradientTransform="translate(4097.47 1142.66) scale(139.135 78.2814)">
<stop offset="0.61" stop-color="white"/>
<stop offset="0.93" stop-color="#D5E0D5"/>
</radialGradient>
<radialGradient id="paint10_radial" cx="0" cy="0" r="1" gradientUnits="userSpaceOnUse" gradientTransform="translate(28.1427 48.7686) scale(3.76733)">
<stop offset="0.61" stop-color="white"/>
<stop offset="1" stop-color="#D5E0D5"/>
</radialGradient>
<radialGradient id="paint11_radial" cx="0" cy="0" r="1" gradientUnits="userSpaceOnUse" gradientTransform="translate(3906.19 3137.32) scale(675.612 368.738)">
<stop offset="0.61" stop-color="white"/>
<stop offset="0.93" stop-color="#D5E0D5"/>
</radialGradient>
<radialGradient id="paint12_radial" cx="0" cy="0" r="1" gradientUnits="userSpaceOnUse" gradientTransform="translate(4879.6 1137.23) scale(178.973 88.5615)">
<stop offset="0.61" stop-color="white"/>
<stop offset="0.93" stop-color="#D5E0D5"/>
</radialGradient>
</defs>
</svg>
