<svg width="90" height="68" viewBox="0 0 90 68" fill="none" xmlns="http://www.w3.org/2000/svg">
<path d="M64.1786 50.5561H56.4133L59.1617 67.8264H66.927L64.1786 50.5561Z" fill="#1D4354"/>
<path d="M26.0252 50.5561H33.7925L31.0452 67.8264H23.281L26.0252 50.5561Z" fill="#1D4354"/>
<path d="M89.0449 53.1498H1.47848C1.08421 53.1498 0.761719 52.8414 0.761719 52.4595V0.865004C0.761719 0.483161 1.08421 0.173645 1.47848 0.173645H89.0438C89.4359 0.173645 89.7617 0.483161 89.7617 0.865004V52.4595C89.7628 52.8414 89.437 53.1498 89.0449 53.1498Z" fill="#1D4354"/>
<path d="M89.0706 58.369H1.45285C1.07113 58.369 0.761719 58.0645 0.761719 57.6888V50.5731C0.761719 50.1974 1.07113 49.8929 1.45285 49.8929H89.0706C89.4502 49.8929 89.7617 50.1974 89.7617 50.5731V57.6888C89.7628 58.0645 89.4512 58.369 89.0706 58.369Z" fill="#1D4354"/>
<path d="M36.7856 16.6955C36.7856 15.918 37.6339 15.4379 38.3004 15.8381L55.4353 26.127C56.0944 26.5228 56.0789 27.4834 55.4074 27.8578L38.2725 37.4092C37.606 37.7808 36.7856 37.2989 36.7856 36.5358V16.6955Z" fill="#F9F9F9"/>
</svg>
